<?xml version="1.0" encoding="UTF-8"?>
<svg version="1.1" xmlns="http://www.w3.org/2000/svg" width="231" height="32">
<path d="M0 0 C3.70690466 3.18966215 5.35775293 5.8129358 6.00390625 10.7109375 C6.2694504 16.41585366 5.64951333 19.93343263 1.6875 24.3125 C-2.47066215 27.98715492 -5.72747785 28.95272828 -11.1328125 28.70703125 C-15.68644377 27.88280767 -19.41138051 24.82438149 -22.3125 21.3125 C-24.23847927 15.53456218 -24.24968691 9.46022001 -21.8125 3.875 C-15.16018882 -2.94361896 -8.48651554 -4.32331924 0 0 Z M-15.3125 7.3125 C-15.9725 7.9725 -16.6325 8.6325 -17.3125 9.3125 C-17.20324068 12.48102034 -16.09041951 13.55795738 -13.9375 15.9375 C-11.35779527 18.38840019 -11.35779527 18.38840019 -8.3125 20.3125 C-6.94372884 19.07850937 -5.59280834 17.82469377 -4.25 16.5625 C-3.49589844 15.86640625 -2.74179687 15.1703125 -1.96484375 14.453125 C-0.03013112 12.45960686 -0.03013112 12.45960686 -0.56640625 10.046875 C-0.81261719 9.47453125 -1.05882813 8.9021875 -1.3125 8.3125 C-3.10449472 7.52967352 -3.10449472 7.52967352 -5.3125 7.3125 C-7.56005753 8.6641367 -7.56005753 8.6641367 -9.3125 10.3125 C-9.745625 9.8175 -10.17875 9.3225 -10.625 8.8125 C-12.30990483 6.98031808 -12.30990483 6.98031808 -15.3125 7.3125 Z " fill="#E00053" transform="translate(46.3125,2.6875)"/>
<path d="M0 0 C3.59260569 3.09131187 5.35273632 5.72273101 5.96875 10.48828125 C6.17060348 15.49256536 5.55117371 19.06636311 2.6875 23.3125 C-1.96737566 27.51324145 -4.84517407 28.67273452 -10.99609375 28.59375 C-14.58316314 28.1582205 -16.61021754 26.63771979 -19.3125 24.3125 C-20.09625 23.6525 -20.88 22.9925 -21.6875 22.3125 C-24.3003759 17.48872912 -24.03855111 12.67075722 -23.3125 7.3125 C-21.04939074 2.70545615 -18.30941165 -0.40310929 -13.5625 -2.4375 C-8.4496168 -3.00559813 -4.51482393 -2.30000464 0 0 Z M-15.3125 7.3125 C-16.91410199 10.51570397 -16.80020192 13.83676522 -16.3125 17.3125 C-14.85252013 19.93966577 -14.85252013 19.93966577 -12.3125 21.3125 C-9.35558291 22.06265195 -9.35558291 22.06265195 -6.3125 21.3125 C-3.3125 19.3125 -3.3125 19.3125 -1.3125 16.3125 C-0.75901362 12.43809532 -1.01281437 9.53205988 -3.3125 6.3125 C-8.02161592 3.2743607 -10.86882335 4.27208966 -15.3125 7.3125 Z " fill="#E00053" transform="translate(201.3125,2.6875)"/>
<path d="M0 0 C6.6 0 13.2 0 20 0 C20 1.98 20 3.96 20 6 C17.23547967 7.38226016 14.9538637 7.09525387 11.875 7.0625 C10.77929688 7.05347656 9.68359375 7.04445313 8.5546875 7.03515625 C7.71164063 7.02355469 6.86859375 7.01195312 6 7 C6 8.32 6 9.64 6 11 C10.62 11 15.24 11 20 11 C19 17 19 17 18 18 C15.98035801 18.07244053 13.95832876 18.08377188 11.9375 18.0625 C10.28041016 18.04896484 10.28041016 18.04896484 8.58984375 18.03515625 C7.73519531 18.02355469 6.88054687 18.01195313 6 18 C6 19.65 6 21.3 6 23 C10.95 23 15.9 23 21 23 C21 24.65 21 26.3 21 28 C20 29 20 29 17.95874023 29.11352539 C17.08419189 29.10828857 16.20964355 29.10305176 15.30859375 29.09765625 C14.36435547 29.09443359 13.42011719 29.09121094 12.44726562 29.08789062 C10.95743164 29.07532227 10.95743164 29.07532227 9.4375 29.0625 C8.44041016 29.05798828 7.44332031 29.05347656 6.41601562 29.04882812 C3.94395151 29.03700007 1.47200482 29.02051849 -1 29 C-1.02891546 24.54168018 -1.04676981 20.08338431 -1.0625 15.625 C-1.07087891 14.35398437 -1.07925781 13.08296875 -1.08789062 11.7734375 C-1.09111328 10.56171875 -1.09433594 9.35 -1.09765625 8.1015625 C-1.10289307 6.98088379 -1.10812988 5.86020508 -1.11352539 4.70556641 C-1 2 -1 2 0 0 Z " fill="#E00054" transform="translate(82,1)"/>
<path d="M0 0 C1.98 0 3.96 0 6 0 C6 3.63 6 7.26 6 11 C8.97 11 11.94 11 15 11 C14.938125 8.834375 14.938125 8.834375 14.875 6.625 C14.8046875 4.1640625 14.8046875 4.1640625 15 2 C17 0 17 0 19.625 -0.125 C20.40875 -0.08375 21.1925 -0.0425 22 0 C22.02465881 3.96930989 22.04284023 7.93859034 22.05493164 11.90795898 C22.05997057 13.25920386 22.06680177 14.61044326 22.07543945 15.96166992 C22.08752419 17.90020434 22.09269828 19.838778 22.09765625 21.77734375 C22.10551147 23.52905884 22.10551147 23.52905884 22.11352539 25.31616211 C22 28 22 28 21 29 C19.02 29 17.04 29 15 29 C15 25.04 15 21.08 15 17 C12.03 17 9.06 17 6 17 C6.01160156 17.78246094 6.02320313 18.56492187 6.03515625 19.37109375 C6.04417969 20.38300781 6.05320313 21.39492188 6.0625 22.4375 C6.07410156 23.44683594 6.08570313 24.45617187 6.09765625 25.49609375 C6 28 6 28 5 29 C3.00041636 29.04080783 0.99954746 29.04254356 -1 29 C-1.02891546 24.54168018 -1.04676981 20.08338431 -1.0625 15.625 C-1.07087891 14.35398437 -1.07925781 13.08296875 -1.08789062 11.7734375 C-1.09111328 10.56171875 -1.09433594 9.35 -1.09765625 8.1015625 C-1.10289307 6.98088379 -1.10812988 5.86020508 -1.11352539 4.70556641 C-1 2 -1 2 0 0 Z " fill="#E00053" transform="translate(153,1)"/>
<path d="M0 0 C2.125 1.875 2.125 1.875 3 4 C2.6875 6.25 2.6875 6.25 2 8 C0.1875 8.6875 0.1875 8.6875 -2 9 C-3.02196992 8.02246356 -4.01979625 7.0194119 -5 6 C-7.60611077 5.27802838 -7.60611077 5.27802838 -10 5 C-10 6.32 -10 7.64 -10 9 C-9.39671875 9.10957031 -8.7934375 9.21914062 -8.171875 9.33203125 C0.46807329 11.04608551 0.46807329 11.04608551 3 14 C3.98515417 17.23693512 4.15904574 19.3320079 3.375 22.625 C1.58688714 25.71355858 0.09251553 27.18482784 -3 29 C-7.860909 29.61725829 -10.00825322 29.46882575 -14.4375 27.375 C-17.45597084 24.57739288 -17.81631437 23.04108383 -18 19 C-15.6875 18.3125 -15.6875 18.3125 -13 18 C-12 19 -11 20 -10 21 C-6.87450983 21.25048636 -6.87450983 21.25048636 -4 21 C-4.33 20.01 -4.66 19.02 -5 18 C-7.00060057 17.08478813 -7.00060057 17.08478813 -9.375 16.5 C-12.72933567 15.58220131 -14.86843414 14.82868174 -17 12 C-17.39919236 8.90625918 -17.62913952 6.96099607 -17 4 C-11.85250633 -2.53870817 -7.39571991 -2.57063127 0 0 Z " fill="#E00053" transform="translate(146,2)"/>
<path d="M0 0 C2.8125 -0.3125 2.8125 -0.3125 6 0 C8.563879 3.48457371 9.84180291 7.14781088 11.125 11.25 C12.04439624 14.91421862 12.04439624 14.91421862 14 18 C14.42152344 16.78441406 14.84304687 15.56882812 15.27734375 14.31640625 C15.83057808 12.73171808 16.38397172 11.14708552 16.9375 9.5625 C17.21529297 8.76005859 17.49308594 7.95761719 17.77929688 7.13085938 C18.04677734 6.36708984 18.31425781 5.60332031 18.58984375 4.81640625 C18.83597412 4.10943604 19.08210449 3.40246582 19.33569336 2.67407227 C20 1 20 1 21 0 C23.33297433 -0.04092937 25.66705225 -0.04241723 28 0 C26.31632748 6.83807348 24.21222478 13.48703016 21.875 20.125 C21.60929199 20.88353271 21.34358398 21.64206543 21.06982422 22.42358398 C19.1278453 27.8721547 19.1278453 27.8721547 18 29 C16.48071962 29.07179964 14.95832518 29.08392007 13.4375 29.0625 C12.61121094 29.05347656 11.78492188 29.04445313 10.93359375 29.03515625 C9.97646484 29.01775391 9.97646484 29.01775391 9 29 C7.48958243 24.92044428 5.9934855 20.83578164 4.5 16.75 C4.07074219 15.59113281 3.64148437 14.43226562 3.19921875 13.23828125 C2.79316406 12.12324219 2.38710938 11.00820312 1.96875 9.859375 C1.59169922 8.83295898 1.21464844 7.80654297 0.82617188 6.74902344 C0 4 0 4 0 0 Z " fill="#E00053" transform="translate(52,1)"/>
<path d="M0 0 C3.91700006 0.05595714 6.30701229 0.31036072 10 1.75 C12.83609442 4.89269922 13.29287328 6.96667704 13.484375 11.125 C13.23974811 14.23843316 12.3650295 15.97686298 10.3125 18.3125 C7.33818432 20.39452098 4.89770633 20.60319241 1.3125 20.3125 C0.9825 19.9825 0.6525 19.6525 0.3125 19.3125 C-0.0175 22.6125 -0.3475 25.9125 -0.6875 29.3125 C-2.6675 29.3125 -4.6475 29.3125 -6.6875 29.3125 C-6.71215881 25.34319011 -6.73034023 21.37390966 -6.74243164 17.40454102 C-6.74747057 16.05329614 -6.75430177 14.70205674 -6.76293945 13.35083008 C-6.77502419 11.41229566 -6.78019828 9.473722 -6.78515625 7.53515625 C-6.79039307 6.36734619 -6.79562988 5.19953613 -6.80102539 3.99633789 C-6.59855893 -0.79014329 -4.27509562 0.09990998 0 0 Z M-0.6875 6.3125 C-0.6875 9.2825 -0.6875 12.2525 -0.6875 15.3125 C1.6225 14.3225 3.9325 13.3325 6.3125 12.3125 C5.9825 10.6625 5.6525 9.0125 5.3125 7.3125 C2.3425 6.8175 2.3425 6.8175 -0.6875 6.3125 Z " fill="#E00053" transform="translate(216.6875,0.6875)"/>
<path d="M0 0 C1.65 0 3.3 0 5 0 C5 7.59 5 15.18 5 23 C10.28 23 15.56 23 21 23 C20.67 24.98 20.34 26.96 20 29 C17.65147472 30.17426264 16.26225935 30.11508173 13.6484375 30.09765625 C12.79765625 30.09443359 11.946875 30.09121094 11.0703125 30.08789062 C10.18085938 30.07951172 9.29140625 30.07113281 8.375 30.0625 C7.4778125 30.05798828 6.580625 30.05347656 5.65625 30.04882812 C3.43743352 30.03702591 1.21874982 30.02056155 -1 30 C-1.02465746 25.8882744 -1.04283959 21.77657722 -1.05493164 17.66479492 C-1.0599708 16.26504772 -1.06680216 14.8653058 -1.07543945 13.46557617 C-1.0875232 11.45754223 -1.09269807 9.44947043 -1.09765625 7.44140625 C-1.10289307 6.23170166 -1.10812988 5.02199707 -1.11352539 3.77563477 C-1 1 -1 1 0 0 Z " fill="#E00053" transform="translate(2,1)"/>
<path d="M0 0 C2.4375 1.5625 2.4375 1.5625 4 4 C4.60502981 8.68898105 4.58908661 10.8897983 2.375 15.0625 C-0.35384345 18.43764848 -3.13249348 21.74146986 -6 25 C-2.37 25.33 1.26 25.66 5 26 C5 26.99 5 27.98 5 29 C-0.94 29 -6.88 29 -13 29 C-11.89454266 24.57817066 -10.73423745 23.38226663 -7.625 20.1875 C-3.9833998 16.24388511 -1.35721449 13.22005574 0 8 C-0.65682309 5.59313185 -0.65682309 5.59313185 -2 4 C-4.37305578 3.58219121 -4.37305578 3.58219121 -7 4 C-8.6446674 6.46326712 -8.6446674 6.46326712 -10 9 C-10.99 9 -11.98 9 -13 9 C-12.63774912 2.60023447 -12.63774912 2.60023447 -9.875 0 C-6.10295234 -1.31201658 -3.83851801 -1.04686855 0 0 Z " fill="#E00053" transform="translate(120,1)"/>
</svg>
