<svg width="27" height="17" viewBox="0 0 27 17" fill="none" xmlns="http://www.w3.org/2000/svg">
<g clip-path="url(#clip0_6763_16524)">
<path d="M26.7754 8.03602C26.5394 7.72141 20.7079 0.541639 13.5169 0.507932C6.32593 0.474224 0.42705 7.60906 0.191095 7.92366C-0.056096 8.22703 -0.067332 8.67647 0.191095 8.97984C0.42705 9.29445 6.25851 16.4742 13.4495 16.5079C20.6405 16.5416 26.5394 9.40681 26.7754 9.10344C27.0338 8.78883 27.0338 8.33939 26.7754 8.02479V8.03602ZM6.51694 12.4068C4.84278 11.2832 3.31469 9.95737 1.96638 8.46299C3.32593 6.97984 4.86525 5.66524 6.55065 4.56411C5.15739 6.99108 5.14615 9.96861 6.51694 12.4068ZM17.9214 13.0023C16.7304 14.1821 15.1237 14.8338 13.4495 14.8338C9.96638 14.8225 7.14615 11.9798 7.15739 8.4967C7.16862 5.01355 10.0226 2.18209 13.5057 2.19332C16.9888 2.20456 19.8091 5.04726 19.7978 8.5304C19.7978 10.2046 19.1124 11.8113 17.9214 12.9911V13.0023ZM20.4158 12.4518C21.7978 10.036 21.8091 7.05849 20.4383 4.63153C22.1124 5.74389 23.6405 7.06973 24.9888 8.55288C23.6293 10.036 22.09 11.3394 20.4158 12.4518Z" fill="#262626"/>
<path d="M17.191 6.70987C16.2135 4.66492 13.7641 3.78852 11.7079 4.77728C11.8203 4.86717 11.9101 4.97953 11.9776 5.11436C12.2135 5.59751 12.0225 6.18178 11.5281 6.41773C11.0337 6.65369 10.4607 6.46268 10.2135 5.9683C9.66296 6.67616 9.35959 7.55257 9.34835 8.45144C9.32588 10.7211 11.1573 12.5863 13.427 12.6087C15.6967 12.6312 17.5618 10.7998 17.5843 8.53009V8.49639C17.5843 7.87841 17.4382 7.26043 17.1686 6.69863L17.191 6.70987Z" fill="#262626"/>
</g>
<defs>
<clipPath id="clip0_6763_16524">
<rect width="26.9663" height="16" fill="white" transform="translate(0 0.507812)"/>
</clipPath>
</defs>
</svg>
