<svg width="27" height="17" viewBox="0 0 27 17" fill="none" xmlns="http://www.w3.org/2000/svg">
<g clip-path="url(#clip0_6769_17060)">
<path d="M13.4775 12.6089C15.75 12.6201 17.6175 10.7886 17.6287 8.50774V8.47403C17.6175 8.20437 17.5837 7.92347 17.5275 7.66504L12.6675 12.519C12.9262 12.5752 13.2075 12.6089 13.4775 12.6089Z" fill="#262626" fill-opacity="0.4"/>
<path d="M5.22 13.609L6.4575 12.373C4.815 11.2719 3.3075 9.97976 1.96875 8.51909C3.33 7.03594 4.86 5.7101 6.5475 4.59774C5.175 6.991 5.16375 9.92358 6.5025 12.3393L7.74 11.1034C7.38 10.3168 7.1775 9.44044 7.1775 8.51909C7.1775 5.03594 10.0125 2.20448 13.5 2.20448C14.4225 2.20448 15.3 2.40673 16.0875 2.76628L17.5837 1.2719C16.29 0.822461 14.9288 0.530326 13.5 0.530326C6.3 0.507854 0.4275 7.66516 0.19125 7.97976C0.0675 8.13707 0 8.31684 0 8.50785C0 8.69887 0.0675 8.88988 0.19125 9.03594C0.32625 9.21572 2.26125 11.5753 5.22 13.5977V13.609Z" fill="#262626" fill-opacity="0.4"/>
<path d="M11.7111 4.77752C11.8236 4.86741 11.9136 4.97977 11.9811 5.1146C12.2173 5.59775 12.0261 6.18202 11.5423 6.42921C11.0586 6.66516 10.4736 6.47415 10.2261 5.99101C9.67484 6.69887 9.38234 7.57527 9.37109 8.47415C9.37109 8.77752 9.40484 9.06966 9.47234 9.36179L14.3548 4.47415C13.4886 4.28314 12.5661 4.36179 11.7111 4.77752Z" fill="#FFA400" fill-opacity="0.4"/>
<path d="M26.7973 9.05842C27.0561 8.74381 27.0561 8.29437 26.7973 7.97977C26.6623 7.79999 24.7273 5.44044 21.7686 3.41797L20.5198 4.66516C22.1623 5.76628 23.6811 7.05842 25.0198 8.50786C23.6586 9.991 22.1286 11.3056 20.4523 12.418V12.4404H20.4411V12.418C21.8136 10.0247 21.8248 7.10336 20.4861 4.68763L19.2598 5.91235C19.6198 6.69887 19.8111 7.57527 19.8111 8.49662C19.8111 10.1708 19.1473 11.7775 17.9548 12.9685C16.7736 14.1483 15.1648 14.8112 13.4886 14.8112C12.5661 14.8112 11.6886 14.609 10.9011 14.2607L9.39355 15.7663C10.6873 16.2157 12.0486 16.5079 13.4773 16.5079C20.6773 16.5079 26.5498 9.35055 26.7861 9.04718L26.7973 9.05842Z" fill="#262626" fill-opacity="0.4"/>
<path d="M20.4863 1.54154C20.0476 1.10334 19.3388 1.10334 18.9001 1.54154L18.7313 1.71008L17.1113 3.32806L15.5251 4.91233L9.92256 10.5078L8.31381 12.1146L6.52506 13.9011C6.41256 14.0135 6.33381 14.1483 6.27756 14.2831C6.12006 14.6876 6.19881 15.1595 6.52506 15.4854C6.75006 15.7101 7.03131 15.8112 7.32381 15.8112C7.61631 15.8112 7.89756 15.6988 8.12256 15.4854L8.28006 15.3281L9.90006 13.7101L11.5201 12.0921L17.1001 6.51907L18.6976 4.92356L20.4863 3.13705C20.5988 3.02469 20.6776 2.88986 20.7338 2.75503C20.8913 2.35053 20.8126 1.87862 20.4863 1.54154Z" fill="#262626" fill-opacity="0.4"/>
</g>
<defs>
<clipPath id="clip0_6769_17060">
<rect width="27" height="16" fill="white" transform="translate(0 0.507812)"/>
</clipPath>
</defs>
</svg>
