<svg width="33" height="32" viewBox="0 0 33 32" fill="none" xmlns="http://www.w3.org/2000/svg">
<path d="M13.8337 12H13.847M19.167 12H19.1803M16.5003 4C18.9757 4 21.3496 4.98333 23.1 6.73367C24.8503 8.48401 25.8337 10.858 25.8337 13.3333V14.6667H27.167C27.8742 14.6667 28.5525 14.9476 29.0526 15.4477C29.5527 15.9478 29.8337 16.6261 29.8337 17.3333C29.8337 18.0406 29.5527 18.7189 29.0526 19.219C28.5525 19.719 27.8742 20 27.167 20H25.8337V24L28.5003 28H15.167C13.0962 28.0015 11.1056 27.1999 9.61362 25.7639C8.12166 24.3279 7.24465 22.3693 7.16699 20.3V19.9987H5.83366C5.12641 19.9987 4.44814 19.7177 3.94804 19.2176C3.44794 18.7175 3.16699 18.0392 3.16699 17.332C3.16699 16.6248 3.44794 15.9465 3.94804 15.4464C4.44814 14.9463 5.12641 14.6653 5.83366 14.6653H7.16699V13.332C7.16699 10.8566 8.15032 8.48268 9.90066 6.73234C11.651 4.982 14.025 4 16.5003 4ZM15.167 18.6666H17.8337C17.8337 18.313 17.6932 17.9739 17.4431 17.7238C17.1931 17.4738 16.8539 17.3333 16.5003 17.3333C16.1467 17.3333 15.8076 17.4738 15.5575 17.7238C15.3075 17.9739 15.167 18.313 15.167 18.6666Z" stroke="#2F49EA" stroke-width="1.8" stroke-linecap="round" stroke-linejoin="round"/>
</svg>
