<svg width="21" height="22" viewBox="0 0 21 22" fill="none" xmlns="http://www.w3.org/2000/svg">
<path d="M1 15.3C0.613401 15.3 0.3 15.6134 0.3 16C0.3 16.3866 0.613401 16.7 1 16.7V15.3ZM4 8L3.3 8V8H4ZM18 8H18.7V8L18 8ZM12.73 20L13.3355 20.3512C13.4611 20.1347 13.4615 19.8676 13.3366 19.6506C13.2116 19.4337 12.9803 19.3 12.73 19.3V20ZM9.27 20V19.3C9.01966 19.3 8.78837 19.4337 8.66342 19.6506C8.53848 19.8676 8.53889 20.1347 8.6645 20.3512L9.27 20ZM21 15.3H1V16.7H21V15.3ZM1 16.7C3.04345 16.7 4.7 15.0435 4.7 13H3.3C3.3 14.2703 2.27025 15.3 1 15.3V16.7ZM4.7 13V8H3.3V13H4.7ZM4.7 8C4.7 4.52061 7.52061 1.7 11 1.7V0.3C6.74741 0.3 3.3 3.74741 3.3 8L4.7 8ZM11 1.7C14.4794 1.7 17.3 4.52061 17.3 8L18.7 8C18.7 3.74741 15.2526 0.3 11 0.3V1.7ZM17.3 8V13H18.7V8H17.3ZM17.3 13C17.3 15.0435 18.9565 16.7 21 16.7V15.3C19.7297 15.3 18.7 14.2703 18.7 13H17.3ZM12.1245 19.6488C11.8919 20.0497 11.4635 20.2965 11 20.2965V21.6965C11.9626 21.6965 12.8525 21.1839 13.3355 20.3512L12.1245 19.6488ZM11 20.2965C10.5365 20.2965 10.1081 20.0497 9.8755 19.6488L8.6645 20.3512C9.14753 21.1839 10.0374 21.6965 11 21.6965V20.2965ZM9.27 20.7H12.73V19.3H9.27V20.7Z" fill="#4B4B4B"/>
</svg>
